<svg width="49" height="47" viewBox="0 0 49 47" fill="none" xmlns="http://www.w3.org/2000/svg">
<path d="M17.8426 5.48935C19.9381 -0.959827 29.0619 -0.959821 31.1574 5.48935L32.0212 8.14793C32.9583 11.0321 35.646 12.9848 38.6786 12.9848L41.474 12.9848C48.2551 12.9848 51.0745 21.6621 45.5885 25.6479L43.327 27.291C40.8736 29.0735 39.847 32.2331 40.7841 35.1173L41.6479 37.7758C43.7434 44.225 36.362 49.5879 30.876 45.6021L28.6145 43.959C26.1611 42.1765 22.8389 42.1765 20.3855 43.959L18.124 45.6021C12.638 49.5879 5.25663 44.225 7.35209 37.7758L8.21592 35.1173C9.15304 32.2331 8.12643 29.0735 5.67302 27.291L3.4115 25.6479C-2.0745 21.6621 0.744933 12.9848 7.526 12.9848L10.3214 12.9848C13.354 12.9848 16.0417 11.0321 16.9788 8.14793L17.8426 5.48935Z" fill="#FF6CC6"/>
</svg>
